<svg height="6881" viewBox="0 0 9900 6881" width="9900" xmlns="http://www.w3.org/2000/svg"><g fill-rule="evenodd"><path d="m9630 6166c.144531-.143066 0-814.895508 0-858 0-435.834473 0-2860 0-2860h-64v-620h-47v-985h79v-302h223v302h79v985h-48v620h-63v2860 858zm191-5657h-223v-143h223zm-223-175c-.074219-.200684 0-32 0-32s32-15 32-15v-128-95s63-64 63-64h32s64 64 64 64v95 128s32 15 32 15v32z"/><path d="m9074 6166v-1271c0-267.496582-49.086914-462.196289-159-588s-289.285156-191-525-191c-153.613281 0-280.466797 46.220703-397 127-116.533691 80.779297-211.734375 185.68457-270 334v-1303h-159v2892h159v-1065c0-124.479004 18.756836-209.084473 32-270 34.429199-174.799316 102.709473-317.654785 206-413 113.885742-105.94043 256.848633-159 429-159 211.878906 0 357.599609 77.33252 445 223 58.265625 100.642578 80 266.987305 80 508v1176zm-2209-651c-13.243164 132.424316-66.302734 245.708496-159 349-113.885742 121.830078-259.605469 159-445 159-238.364746 0-434.277832-68.605469-572-254-121.831055-164.206055-175-368.393555-175-620 0-270.146484 58.466797-486.793945 175-651 132.424805-185.394531 328.44873-255 588-255 166.853516 0 293.709473 21.950195 397 112 103.290527 90.049316 159.109375 214.145996 175 381h159c-15.891113-206.583008-91.900391-361.791016-223-477-131.099121-115.208984-293.47168-143-508-143-299.27832 0-545.496582 74.121094-715 286-150.963379 190.69043-223 434.478516-223 747 0 299.279297 85.387207 545.605469 239 731 164.206055 198.636719 378.314941 286 667 286 217.17627 0 396.982422-61.224609 540-191 132.424805-124.479004 207.108887-269.308594 223-460zm-1843 492c-73.66748 13.007813-127.327637 16-175 16-113.885742 0-201.920898-50.084473-239-111-34.429687-52.970215-47-137.466309-47-254v-1383h445v-159h-445v-508l-159 63v445h-398v159h398v1462c0 267.497559 118.689941 429 365 429 84.751465 0 172.895996-18.757812 255-32zm-1367 127c-10.593262-174.800293-10.702393-359.90332-16-540-2.647949-31.781738-2.647949-502.920898 0-540v-159-95c0-137.722168-29.570557-246.709473-64-350-76.806396-233.067383-280.101807-334-635-334-185.394531 0-344.466309 13.895996-461 96-137.721924 97.995117-204.352051 238.200684-207 413h159c31.781738-267.496582 201.776367-382 509-382 190.690186 0 328.248291 32.977539 413 127 84.751953 94.021973 127 225.95752 127 414v159s-76.786865 0-143 0h-175c-299.27832 0-529.496338 31.545898-699 111-235.714844 108.587891-350 288.393066-350 540 0 198.636719 74.684814 357.708496 223 461 119.181396 84.751953 270.309814 111 461 111 161.558105 0 305.845947-19.518555 429-95s214.38208-196.388184 270-350l16 413zm-175-921c0 214.527344-31.436523 391.575684-95 524-100.642822 211.878906-299.205811 302-572 302-158.908691 0-286.654785-23.491211-382-95-111.23584-84.751953-159-201.68457-159-350 0-222.472656 111.635254-378.896973 350-461 148.315186-50.320312 368.503174-79 636-79h111 111zm-1986 619c135.332275-192.450195 206-426.314941 206-715s-60.223511-516.254883-190-699c-150.963135-211.878906-376.557983-302-652-302-328.412231 0-561.278015 140.642578-699 477v-111c-2.647827-31.781738 0-76.787109 0-143v-143c-2.647827-26.483887 0-53.515625 0-80h-159c7.945427 206.583008 16 413.416992 16 620v2145h159v-1207c135.072205 328.412109 357.235596 492 683 492 267.496582 0 479.739258-116.82373 636-334zm-111-1319c111.731934 161.063965 143 378.987305 143 620s-39.709473 442.442871-143 604c-127.126831 190.691406-313.230469 286-541 286-230.41925 0-404.818634-92.660156-524-286-97.994873-156.260742-143-368.393066-143-620 0-248.958008 55.709473-445.091797 159-604 119.181396-190.69043 280.230469-270 508-270s416.520996 74.012207 541 270z"/><path d="m7723 2877v-1256c0-267.496582-49.086914-462.195801-159-588-109.913086-125.803711-288.285156-190-524-190-153.612793 0-281.466309 46.221191-398 127-116.533203 80.779297-211.733887 185.68457-270 334v-1304h-159v2877h159v-1049c0-124.479004 18.757324-209.084473 32-270 34.429688-174.799805 103.709473-317.654785 207-413 113.885742-105.939941 256.848145-159 429-159 211.878418 0 357.600098 76.33252 445 222 58.265625 100.643066 79 267.987305 79 509v1160zm-2145-636c-13.242676 132.424805-66.302734 246.709473-159 350-113.885742 121.831055-259.605469 143-445 143-238.364746 0-418.27832-53.605469-556-239-121.831543-164.206055-191-367.394531-191-619 0-270.146484 58.466309-487.793945 175-652 132.424316-185.394531 328.44873-254 588-254 166.854004 0 309.709473 20.950195 413 111 103.290527 90.049316 159.109375 214.145996 175 381h159c-15.891113-206.583008-91.900391-360.791504-223-476-131.099121-115.208496-309.47168-143-524-143-299.27832 0-529.496582 74.121582-699 286-150.963379 190.69043-223 434.478516-223 747 0 299.27832 69.387207 545.605469 223 731 164.206055 198.637695 394.314941 270 683 270 217.17627 0 396.982422-45.223633 540-175 132.424805-124.479004 207.108887-270.30957 223-461zm-1796 477c-74.158691 13.243164-127.327393 16-175 16-113.885742 0-200.920654-35.084473-238-96-34.429443-52.970215-48-137.466797-48-254v-1382h445v-159h-445v-509l-159 64v445h-397v159h397v1462c0 267.496582 119.689941 413 366 413 84.751953 0 171.895996-18.75708 254-32zm-1446-2384v-334h-159v334zm0 2543v-2034h-159v2034zm-842-318c135.332275-191.935059 206-426.314941 206-715s-60.223511-516.254883-190-699c-150.963135-211.878418-376.557983-302-652-302-328.412231 0-561.278015 139.64209-699 476v-111c-2.647827-31.781738 0-76.786621 0-143v-143c-2.647827-26.483887 0-52.516113 0-79h-159c7.945427 206.583008 16 412.416992 16 619v2146h159v-1208c135.072205 328.412109 357.235596 477 683 477 267.496582 0 479.739258-100.82373 636-318zm-111-1319c111.731934 161.57959 143 378.987793 143 620 0 241.012695-39.709473 442.441895-143 604-127.126831 190.689941-313.230469 270-541 270-230.41925 0-404.818634-76.660156-524-270-97.994873-156.260742-143-368.394531-143-620 0-248.958008 55.709473-445.091309 159-604 119.181396-190.689941 280.230469-270 508-270s416.520996 74.012207 541 270z"/></g></svg>