<svg height="10000" viewBox="0 0 10000 10000" width="10000" xmlns="http://www.w3.org/2000/svg"><g fill-rule="evenodd"><path d="m4771 18870c.223633-.410156 0-2344.984375 0-2469 0-1253.924805 0-8228 0-8228h-184v-1784.000977h-135v-2833.999511h227v-868.999512h642v868.999512h227v2833.999511h-138v1784.000977h-181v8228 2469zm550-16276.000488c1.595215-.425293-642 0-642 0v-411h642zm-642-503c-.338867-.515137 0-91.999024 0-91.999024s92-43 92-43v-369.000488-273s181-183.999023 181-183.999023h93s184 183.999023 184 183.999023v273 369.000488s92 43 92 43v91.999024z" fill="#fff"/><path d="m4771 18870c.223633-.410156 0-2344.984375 0-2469 0-1253.924805 0-8228 0-8228h-184v-1784.000977h-135v-2833.999511h227v-868.999512h642v868.999512h227v2833.999511h-138v1784.000977h-181v8228 2469zm550-16276.000488c1.595215-.425293-642 0-642 0v-411h642zm-642-503c-.338867-.515137 0-91.999024 0-91.999024s92-43 92-43v-369.000488-273s181-183.999023 181-183.999023h93s184 183.999023 184 183.999023v273 369.000488s92 43 92 43v91.999024z"/><path d="m4771 18870c.223633-.410156 0-2344.984375 0-2469 0-1253.924805 0-8228 0-8228h-184v-1784.000977h-135v-2833.999511h227v-868.999512h642v868.999512h227v2833.999511h-138v1784.000977h-181v8228 2469zm550-16276.000488c1.595215-.425293-642 0-642 0v-411h642zm-642-503c-.338867-.515137 0-91.999024 0-91.999024s92-43 92-43v-369.000488-273s181-183.999023 181-183.999023h93s184 183.999023 184 183.999023v273 369.000488s92 43 92 43v91.999024z" fill="#212121"/></g></svg>