<?xml version="1.0" encoding="UTF-8"?>
<!-- Generated by Pixelmator Pro 3.0.1 -->
<svg width="9900" height="6881" viewBox="0 0 9900 6881" xmlns="http://www.w3.org/2000/svg" xmlns:xlink="http://www.w3.org/1999/xlink">
    <g id="logo-white">
        <path id="plug" fill="#ffffff" fill-rule="evenodd" stroke="none" d="M 9630 6166 C 9630.144531 6165.856934 9630 5351.104492 9630 5308 C 9630 4872.165527 9630 2448 9630 2448 C 9630 2448 9566 2448 9566 2448 C 9566 2448 9566 1828 9566 1828 C 9566 1828 9519 1828 9519 1828 C 9519 1828 9519 843 9519 843 C 9519 843 9598 843 9598 843 C 9598 843 9598 541 9598 541 C 9598 541 9821 541 9821 541 C 9821 541 9821 843 9821 843 C 9821 843 9900 843 9900 843 C 9900 843 9900 1828 9900 1828 C 9900 1828 9852 1828 9852 1828 C 9852 1828 9852 2448 9852 2448 C 9852 2448 9789 2448 9789 2448 C 9789 2448 9789 4872.165527 9789 5308 C 9789 5351.104492 9789 6166 9789 6166 C 9789 6166 9630 6166 9630 6166 Z M 9821 509 C 9821.454102 509 9598 509 9598 509 C 9598 509 9598 366 9598 366 C 9598 366 9821 366 9821 366 C 9821 366 9821 509 9821 509 Z M 9598 334 C 9597.925781 333.799316 9598 302 9598 302 C 9598 302 9630 287 9630 287 C 9630 287 9630 159 9630 159 C 9630 159 9630 64 9630 64 C 9630 64 9693 0 9693 0 C 9693 0 9725 0 9725 0 C 9725 0 9789 64 9789 64 C 9789 64 9789 159 9789 159 C 9789 159 9789 287 9789 287 C 9789 287 9821 302 9821 302 C 9821 302 9821 334 9821 334 C 9821 334 9598 334 9598 334 Z"/>
        <path id="patch" fill="#ffffff" fill-rule="evenodd" stroke="none" d="M 9074 6166 L 9074 4895 C 9074 4627.503418 9024.913086 4432.803711 8915 4307 C 8805.086914 4181.196289 8625.714844 4116 8390 4116 C 8236.386719 4116 8109.533203 4162.220703 7993 4243 C 7876.466309 4323.779297 7781.265625 4428.68457 7723 4577 L 7723 3274 L 7564 3274 L 7564 6166 L 7723 6166 L 7723 5101 C 7723 4976.520996 7741.756836 4891.915527 7755 4831 C 7789.429199 4656.200684 7857.709473 4513.345215 7961 4418 C 8074.885742 4312.05957 8217.848633 4259 8390 4259 C 8601.878906 4259 8747.599609 4336.33252 8835 4482 C 8893.265625 4582.642578 8915 4748.987305 8915 4990 L 8915 6166 Z M 6865 5515 C 6851.756836 5647.424316 6798.697266 5760.708496 6706 5864 C 6592.114258 5985.830078 6446.394531 6023 6261 6023 C 6022.635254 6023 5826.722168 5954.394531 5689 5769 C 5567.168945 5604.793945 5514 5400.606445 5514 5149 C 5514 4878.853516 5572.466797 4662.206055 5689 4498 C 5821.424805 4312.605469 6017.44873 4243 6277 4243 C 6443.853516 4243 6570.709473 4264.950195 6674 4355 C 6777.290527 4445.049316 6833.109375 4569.145996 6849 4736 L 7008 4736 C 6992.108887 4529.416992 6916.099609 4374.208984 6785 4259 C 6653.900879 4143.791016 6491.52832 4116 6277 4116 C 5977.72168 4116 5731.503418 4190.121094 5562 4402 C 5411.036621 4592.69043 5339 4836.478516 5339 5149 C 5339 5448.279297 5424.387207 5694.605469 5578 5880 C 5742.206055 6078.636719 5956.314941 6166 6245 6166 C 6462.17627 6166 6641.982422 6104.775391 6785 5975 C 6917.424805 5850.520996 6992.108887 5705.691406 7008 5515 Z M 5022 6007 C 4948.33252 6020.007813 4894.672363 6023 4847 6023 C 4733.114258 6023 4645.079102 5972.915527 4608 5912 C 4573.570313 5859.029785 4561 5774.533691 4561 5658 L 4561 4275 C 4561 4275 5006 4275 5006 4275 C 5006 4275 5006 4116 5006 4116 L 4561 4116 L 4561 3608 L 4402 3671 L 4402 4116 L 4004 4116 L 4004 4275 L 4402 4275 L 4402 5737 C 4402 6004.497559 4520.689941 6166 4767 6166 C 4851.751465 6166 4939.895996 6147.242188 5022 6134 L 5022 6007 Z M 3655 6134 C 3644.406738 5959.199707 3644.297607 5774.09668 3639 5594 C 3636.352051 5562.218262 3636.352051 5091.079102 3639 5054 L 3639 4895 L 3639 4800 C 3639 4662.277832 3609.429443 4553.290527 3575 4450 C 3498.193604 4216.932617 3294.898193 4116 2940 4116 C 2754.605469 4116 2595.533691 4129.895996 2479 4212 C 2341.278076 4309.995117 2274.647949 4450.200684 2272 4625 L 2431 4625 C 2462.781738 4357.503418 2632.776367 4243 2940 4243 C 3130.690186 4243 3268.248291 4275.977539 3353 4370 C 3437.751953 4464.021973 3480 4595.95752 3480 4784 L 3480 4943 C 3480 4943 3403.213135 4943 3337 4943 L 3162 4943 C 2862.72168 4943 2632.503662 4974.545898 2463 5054 C 2227.285156 5162.587891 2113 5342.393066 2113 5594 C 2113 5792.636719 2187.684814 5951.708496 2336 6055 C 2455.181396 6139.751953 2606.309814 6166 2797 6166 C 2958.558105 6166 3102.845947 6146.481445 3226 6071 C 3349.154053 5995.518555 3440.38208 5874.611816 3496 5721 L 3512 6134 L 3655 6134 Z M 3480 5213 C 3480 5427.527344 3448.563477 5604.575684 3385 5737 C 3284.357178 5948.878906 3085.794189 6039 2813 6039 C 2654.091309 6039 2526.345215 6015.508789 2431 5944 C 2319.76416 5859.248047 2272 5742.31543 2272 5594 C 2272 5371.527344 2383.635254 5215.103027 2622 5133 C 2770.315186 5082.679688 2990.503174 5054 3258 5054 L 3369 5054 C 3369 5054 3480 5054 3480 5054 L 3480 5213 Z M 1494 5832 C 1629.332275 5639.549805 1700 5405.685059 1700 5117 C 1700 4828.314941 1639.776489 4600.745117 1510 4418 C 1359.036865 4206.121094 1133.442017 4116 858 4116 C 529.587769 4116 296.721985 4256.642578 159 4593 L 159 4482 C 156.352173 4450.218262 159 4405.212891 159 4339 L 159 4196 C 156.352173 4169.516113 159 4142.484375 159 4116 L 0 4116 C 7.945427 4322.583008 16 4529.416992 16 4736 L 16 6881 L 175 6881 L 175 5674 C 310.072205 6002.412109 532.235596 6166 858 6166 C 1125.496582 6166 1337.739258 6049.17627 1494 5832 Z M 1383 4513 C 1494.731934 4674.063965 1526 4891.987305 1526 5133 C 1526 5374.012695 1486.290527 5575.442871 1383 5737 C 1255.873169 5927.691406 1069.769531 6023 842 6023 C 611.58075 6023 437.181366 5930.339844 318 5737 C 220.005127 5580.739258 175 5368.606934 175 5117 C 175 4868.041992 230.709473 4671.908203 334 4513 C 453.181396 4322.30957 614.230469 4243 842 4243 C 1069.769531 4243 1258.520996 4317.012207 1383 4513 Z"/>
        <path id="pitch" fill="#ffffff" fill-rule="evenodd" stroke="none" d="M 7723 2877 L 7723 1621 C 7723 1353.503418 7673.913086 1158.804199 7564 1033 C 7454.086914 907.196289 7275.714844 843 7040 843 C 6886.387207 843 6758.533691 889.221191 6642 970 C 6525.466797 1050.779297 6430.266113 1155.68457 6372 1304 L 6372 0 L 6213 0 L 6213 2877 L 6372 2877 L 6372 1828 C 6372 1703.520996 6390.757324 1618.915527 6404 1558 C 6438.429688 1383.200195 6507.709473 1240.345215 6611 1145 C 6724.885742 1039.060059 6867.848145 986 7040 986 C 7251.878418 986 7397.600098 1062.33252 7485 1208 C 7543.265625 1308.643066 7564 1475.987305 7564 1717 L 7564 2877 Z M 5578 2241 C 5564.757324 2373.424805 5511.697266 2487.709473 5419 2591 C 5305.114258 2712.831055 5159.394531 2734 4974 2734 C 4735.635254 2734 4555.72168 2680.394531 4418 2495 C 4296.168457 2330.793945 4227 2127.605469 4227 1876 C 4227 1605.853516 4285.466309 1388.206055 4402 1224 C 4534.424316 1038.605469 4730.44873 970 4990 970 C 5156.854004 970 5299.709473 990.950195 5403 1081 C 5506.290527 1171.049316 5562.109375 1295.145996 5578 1462 L 5737 1462 C 5721.108887 1255.416992 5645.099609 1101.208496 5514 986 C 5382.900879 870.791504 5204.52832 843 4990 843 C 4690.72168 843 4460.503418 917.121582 4291 1129 C 4140.036621 1319.69043 4068 1563.478516 4068 1876 C 4068 2175.27832 4137.387207 2421.605469 4291 2607 C 4455.206055 2805.637695 4685.314941 2877 4974 2877 C 5191.17627 2877 5370.982422 2831.776367 5514 2702 C 5646.424805 2577.520996 5721.108887 2431.69043 5737 2241 Z M 3782 2718 C 3707.841309 2731.243164 3654.672607 2734 3607 2734 C 3493.114258 2734 3406.079346 2698.915527 3369 2638 C 3334.570557 2585.029785 3321 2500.533203 3321 2384 L 3321 1002 L 3766 1002 L 3766 843 L 3321 843 L 3321 334 L 3162 398 L 3162 843 L 2765 843 L 2765 1002 L 3162 1002 L 3162 2464 C 3162 2731.496582 3281.689941 2877 3528 2877 C 3612.751953 2877 3699.895996 2858.24292 3782 2845 Z M 2336 334 L 2336 0 L 2177 0 L 2177 334 Z M 2336 2877 L 2336 843 L 2177 843 L 2177 2877 Z M 1494 2559 C 1629.332275 2367.064941 1700 2132.685059 1700 1844 C 1700 1555.314941 1639.776489 1327.745117 1510 1145 C 1359.036865 933.121582 1133.442017 843 858 843 C 529.587769 843 296.721985 982.64209 159 1319 L 159 1208 C 156.352173 1176.218262 159 1131.213379 159 1065 L 159 922 C 156.352173 895.516113 159 869.483887 159 843 L 0 843 C 7.945427 1049.583008 16 1255.416992 16 1462 L 16 3608 L 175 3608 L 175 2400 C 310.072205 2728.412109 532.235596 2877 858 2877 C 1125.496582 2877 1337.739258 2776.17627 1494 2559 Z M 1383 1240 C 1494.731934 1401.57959 1526 1618.987793 1526 1860 C 1526 2101.012695 1486.290527 2302.441895 1383 2464 C 1255.873169 2654.689941 1069.769531 2734 842 2734 C 611.58075 2734 437.181366 2657.339844 318 2464 C 220.005127 2307.739258 175 2095.605469 175 1844 C 175 1595.041992 230.709473 1398.908691 334 1240 C 453.181396 1049.310059 614.230469 970 842 970 C 1069.769531 970 1258.520996 1044.012207 1383 1240 Z"/>
    </g>
</svg>
