<svg height="7093" viewBox="0 0 1146 7093" width="1146" xmlns="http://www.w3.org/2000/svg"><path d="m344 17765c.223633-.410156 0-2344.985352 0-2469 0-1253.924805 0-8227.999512 0-8227.999512h-184v-1784.001465h-135v-2833.999511h227v-868.999512h642.000061v868.999512h226.999939v2833.999511h-138v1784.001465h-181v8227.999512 2469zm550.000061-16276.000488c1.595154-.425293-642.000061 0-642.000061 0v-411h642.000061zm-642.000061-503c-.338867-.515137 0-91.999024 0-91.999024s92-43 92-43v-369.000488-273s181-183.999512 181-183.999512h93s184 183.999512 184 183.999512v273 369.000488s92.000061 43 92.000061 43v91.999024z" fill="none" stroke="#0f0e12" stroke-linecap="round" stroke-linejoin="round" stroke-width="50"/></svg>