<?xml version="1.0" encoding="UTF-8"?>
<!-- Generated by Pixelmator Pro 3.1.1 -->
<svg width="1096" height="8870" viewBox="0 0 1096 8870" xmlns="http://www.w3.org/2000/svg" xmlns:xlink="http://www.w3.org/1999/xlink">
    <path id="plug-ffffff" fill="#ffffff" fill-rule="evenodd" stroke="none" d="M 319 17740 C 319.223633 17739.589844 319 15395.014648 319 15271 C 319 14017.075195 319 7043 319 7043 C 319 7043 135 7043 135 7043 C 135 7043 135 5258.999023 135 5258.999023 C 135 5258.999023 0 5258.999023 0 5258.999023 C 0 5258.999023 0 2424.999512 0 2424.999512 C 0 2424.999512 227 2424.999512 227 2424.999512 C 227 2424.999512 227 1556 227 1556 C 227 1556 869.000061 1556 869.000061 1556 C 869.000061 1556 869.000061 2424.999512 869.000061 2424.999512 C 869.000061 2424.999512 1096 2424.999512 1096 2424.999512 C 1096 2424.999512 1096 5258.999023 1096 5258.999023 C 1096 5258.999023 958 5258.999023 958 5258.999023 C 958 5258.999023 958 7043 958 7043 C 958 7043 777 7043 777 7043 C 777 7043 777 14017.075195 777 15271 C 777 15395.014648 777 17740 777 17740 C 777 17740 319 17740 319 17740 Z M 869.000061 1463.999512 C 870.595215 1463.574219 227 1463.999512 227 1463.999512 C 227 1463.999512 227 1052.999512 227 1052.999512 C 227 1052.999512 869.000061 1052.999512 869.000061 1052.999512 C 869.000061 1052.999512 869.000061 1463.999512 869.000061 1463.999512 Z M 227 960.999512 C 226.661133 960.484375 227 869.000488 227 869.000488 C 227 869.000488 319 826.000488 319 826.000488 C 319 826.000488 319 457 319 457 C 319 457 319 184 319 184 C 319 184 500.000031 0.000977 500.000031 0.000977 C 500.000031 0.000977 593 0.000977 593 0.000977 C 593 0.000977 777 184 777 184 C 777 184 777 457 777 457 C 777 457 777 826.000488 777 826.000488 C 777 826.000488 869.000061 869.000488 869.000061 869.000488 C 869.000061 869.000488 869.000061 960.999512 869.000061 960.999512 C 869.000061 960.999512 227 960.999512 227 960.999512 Z"/>
    <path id="plug-000000" fill="#000000" fill-rule="evenodd" stroke="none" d="M 319 17740 C 319.223633 17739.589844 319 15395.014648 319 15271 C 319 14017.075195 319 7043 319 7043 C 319 7043 135 7043 135 7043 C 135 7043 135 5258.999023 135 5258.999023 C 135 5258.999023 0 5258.999023 0 5258.999023 C 0 5258.999023 0 2424.999512 0 2424.999512 C 0 2424.999512 227 2424.999512 227 2424.999512 C 227 2424.999512 227 1556 227 1556 C 227 1556 869.000061 1556 869.000061 1556 C 869.000061 1556 869.000061 2424.999512 869.000061 2424.999512 C 869.000061 2424.999512 1096 2424.999512 1096 2424.999512 C 1096 2424.999512 1096 5258.999023 1096 5258.999023 C 1096 5258.999023 958 5258.999023 958 5258.999023 C 958 5258.999023 958 7043 958 7043 C 958 7043 777 7043 777 7043 C 777 7043 777 14017.075195 777 15271 C 777 15395.014648 777 17740 777 17740 C 777 17740 319 17740 319 17740 Z M 869.000061 1463.999512 C 870.595215 1463.574219 227 1463.999512 227 1463.999512 C 227 1463.999512 227 1052.999512 227 1052.999512 C 227 1052.999512 869.000061 1052.999512 869.000061 1052.999512 C 869.000061 1052.999512 869.000061 1463.999512 869.000061 1463.999512 Z M 227 960.999512 C 226.661133 960.484375 227 869.000488 227 869.000488 C 227 869.000488 319 826.000488 319 826.000488 C 319 826.000488 319 457 319 457 C 319 457 319 184 319 184 C 319 184 500.000031 0.000977 500.000031 0.000977 C 500.000031 0.000977 593 0.000977 593 0.000977 C 593 0.000977 777 184 777 184 C 777 184 777 457 777 457 C 777 457 777 826.000488 777 826.000488 C 777 826.000488 869.000061 869.000488 869.000061 869.000488 C 869.000061 869.000488 869.000061 960.999512 869.000061 960.999512 C 869.000061 960.999512 227 960.999512 227 960.999512 Z"/>
    <path id="plug-212121" fill="#212121" fill-rule="evenodd" stroke="none" d="M 319 17740 C 319.223633 17739.589844 319 15395.014648 319 15271 C 319 14017.075195 319 7043 319 7043 C 319 7043 135 7043 135 7043 C 135 7043 135 5258.999023 135 5258.999023 C 135 5258.999023 0 5258.999023 0 5258.999023 C 0 5258.999023 0 2424.999512 0 2424.999512 C 0 2424.999512 227 2424.999512 227 2424.999512 C 227 2424.999512 227 1556 227 1556 C 227 1556 869.000061 1556 869.000061 1556 C 869.000061 1556 869.000061 2424.999512 869.000061 2424.999512 C 869.000061 2424.999512 1096 2424.999512 1096 2424.999512 C 1096 2424.999512 1096 5258.999023 1096 5258.999023 C 1096 5258.999023 958 5258.999023 958 5258.999023 C 958 5258.999023 958 7043 958 7043 C 958 7043 777 7043 777 7043 C 777 7043 777 14017.075195 777 15271 C 777 15395.014648 777 17740 777 17740 C 777 17740 319 17740 319 17740 Z M 869.000061 1463.999512 C 870.595215 1463.574219 227 1463.999512 227 1463.999512 C 227 1463.999512 227 1052.999512 227 1052.999512 C 227 1052.999512 869.000061 1052.999512 869.000061 1052.999512 C 869.000061 1052.999512 869.000061 1463.999512 869.000061 1463.999512 Z M 227 960.999512 C 226.661133 960.484375 227 869.000488 227 869.000488 C 227 869.000488 319 826.000488 319 826.000488 C 319 826.000488 319 457 319 457 C 319 457 319 184 319 184 C 319 184 500.000031 0.000977 500.000031 0.000977 C 500.000031 0.000977 593 0.000977 593 0.000977 C 593 0.000977 777 184 777 184 C 777 184 777 457 777 457 C 777 457 777 826.000488 777 826.000488 C 777 826.000488 869.000061 869.000488 869.000061 869.000488 C 869.000061 869.000488 869.000061 960.999512 869.000061 960.999512 C 869.000061 960.999512 227 960.999512 227 960.999512 Z"/>
    <path id="plug-0f0e12" fill="#0f0e12" fill-rule="evenodd" stroke="none" d="M 319 17740 C 319.223633 17739.589844 319 15395.014648 319 15271 C 319 14017.075195 319 7043 319 7043 C 319 7043 135 7043 135 7043 C 135 7043 135 5258.999023 135 5258.999023 C 135 5258.999023 0 5258.999023 0 5258.999023 C 0 5258.999023 0 2424.999512 0 2424.999512 C 0 2424.999512 227 2424.999512 227 2424.999512 C 227 2424.999512 227 1556 227 1556 C 227 1556 869.000061 1556 869.000061 1556 C 869.000061 1556 869.000061 2424.999512 869.000061 2424.999512 C 869.000061 2424.999512 1096 2424.999512 1096 2424.999512 C 1096 2424.999512 1096 5258.999023 1096 5258.999023 C 1096 5258.999023 958 5258.999023 958 5258.999023 C 958 5258.999023 958 7043 958 7043 C 958 7043 777 7043 777 7043 C 777 7043 777 14017.075195 777 15271 C 777 15395.014648 777 17740 777 17740 C 777 17740 319 17740 319 17740 Z M 869.000061 1463.999512 C 870.595215 1463.574219 227 1463.999512 227 1463.999512 C 227 1463.999512 227 1052.999512 227 1052.999512 C 227 1052.999512 869.000061 1052.999512 869.000061 1052.999512 C 869.000061 1052.999512 869.000061 1463.999512 869.000061 1463.999512 Z M 227 960.999512 C 226.661133 960.484375 227 869.000488 227 869.000488 C 227 869.000488 319 826.000488 319 826.000488 C 319 826.000488 319 457 319 457 C 319 457 319 184 319 184 C 319 184 500.000031 0.000977 500.000031 0.000977 C 500.000031 0.000977 593 0.000977 593 0.000977 C 593 0.000977 777 184 777 184 C 777 184 777 457 777 457 C 777 457 777 826.000488 777 826.000488 C 777 826.000488 869.000061 869.000488 869.000061 869.000488 C 869.000061 869.000488 869.000061 960.999512 869.000061 960.999512 C 869.000061 960.999512 227 960.999512 227 960.999512 Z"/>
</svg>
