<?xml version="1.0" encoding="UTF-8"?>
<!-- Generated by Pixelmator Pro 3.3.10 -->
<svg width="10000" height="10000" viewBox="0 0 10000 10000" xmlns="http://www.w3.org/2000/svg">
    <path id="Shape" fill="#f0f1ed" fill-rule="evenodd" stroke="none" d="M 0 10000 L 10000 10000 L 10000 0 L 0 0 Z"/>
    <g id="Group">
        <path id="Path" fill="#000000" fill-rule="evenodd" stroke="none" d="M 4771 18870 C 4771.223633 18869.589844 4771 16525.015625 4771 16401 C 4771 15147.075195 4771 8173 4771 8173 L 4587 8173 L 4587 6388.999023 L 4452 6388.999023 L 4452 3554.999512 L 4679 3554.999512 L 4679 2686 L 5321 2686 L 5321 3554.999512 L 5548 3554.999512 L 5548 6388.999023 L 5410 6388.999023 L 5410 8173 L 5229 8173 L 5229 16401 L 5229 18870 Z M 5321 2593.999512 C 5322.595215 2593.574219 4679 2593.999512 4679 2593.999512 L 4679 2182.999512 L 5321 2182.999512 Z M 4679 2090.999512 C 4678.661133 2090.484375 4679 1999.000488 4679 1999.000488 C 4679 1999.000488 4771 1956.000488 4771 1956.000488 L 4771 1587 L 4771 1314 C 4771 1314 4952 1130.000977 4952 1130.000977 L 5045 1130.000977 C 5045 1130.000977 5229 1314 5229 1314 L 5229 1587 L 5229 1956.000488 C 5229 1956.000488 5321 1999.000488 5321 1999.000488 L 5321 2090.999512 Z"/>
    </g>
</svg>
